<?xml version="1.0" standalone="no"?>
<!DOCTYPE svg PUBLIC "-//W3C//DTD SVG 20010904//EN"
 "http://www.w3.org/TR/2001/REC-SVG-20010904/DTD/svg10.dtd">
<svg version="1.0" xmlns="http://www.w3.org/2000/svg"
 width="512.000000pt" height="512.000000pt" viewBox="0 0 512.000000 512.000000"
 preserveAspectRatio="xMidYMid meet">
<metadata>
Created by potrace 1.14, written by Peter Selinger 2001-2017
</metadata>
<g transform="translate(0.000000,512.000000) scale(0.100000,-0.100000)"
fill="#000000" stroke="none">
<path d="M1466 4463 c-195 -40 -326 -176 -375 -390 -25 -111 -30 -189 -36
-558 -2 -148 -7 -290 -10 -315 -3 -25 -8 -58 -10 -75 -18 -148 -41 -208 -101
-275 -65 -71 -163 -119 -252 -123 l-40 -2 1 -162 c0 -131 3 -163 13 -163 8 0
16 -1 19 -1 2 -1 26 -5 51 -10 117 -22 233 -117 273 -223 11 -29 25 -91 31
-137 6 -46 13 -97 16 -114 3 -16 7 -149 9 -295 4 -326 18 -528 41 -615 17 -62
80 -170 128 -218 106 -106 216 -142 444 -146 l132 -2 0 155 c0 118 -3 156 -12
157 -7 0 -51 2 -98 3 -92 4 -187 33 -219 67 -29 31 -60 100 -67 149 -3 25 -8
198 -9 385 -3 354 -11 439 -54 585 -43 144 -68 192 -151 278 -41 43 -145 116
-181 127 -10 4 -19 9 -19 13 0 4 28 23 61 41 78 45 174 133 214 196 33 52 80
162 88 205 7 33 16 89 21 123 9 57 19 330 20 562 1 225 3 244 25 310 31 91 69
128 161 156 51 15 89 20 144 17 l76 -3 0 158 0 158 -132 -2 c-73 -1 -164 -9
-202 -16z"/>
<path d="M3321 4326 c0 -176 -9 -160 91 -157 68 2 125 -11 195 -46 44 -22 55
-33 74 -77 42 -98 47 -135 47 -378 -1 -271 8 -457 26 -602 15 -115 78 -254
150 -334 47 -51 141 -123 199 -152 32 -16 34 -26 8 -35 -36 -11 -138 -83 -181
-126 -103 -106 -152 -228 -195 -484 -4 -22 -8 -197 -10 -390 -2 -218 -7 -369
-15 -400 -30 -131 -107 -183 -280 -190 -47 -2 -91 -4 -97 -4 -10 -1 -13 -39
-13 -157 l0 -155 130 2 c71 1 160 8 197 16 151 30 270 121 336 255 61 125 74
242 83 711 5 265 5 278 19 377 17 123 24 150 56 205 38 65 55 85 107 123 55
39 140 67 223 72 4 0 6 73 6 163 -1 158 -2 163 -22 162 -11 -1 -45 4 -75 11
-174 40 -272 165 -295 374 -4 36 -9 79 -11 95 -2 17 -6 140 -9 275 -6 322 -13
477 -25 542 -37 193 -127 331 -261 398 -81 41 -159 56 -321 59 l-137 3 0 -156z"/>
</g>
</svg>
